<mxfile host="Electron" modified="2023-08-11T22:49:33.293Z" agent="Mozilla/5.0 (Windows NT 10.0; Win64; x64) AppleWebKit/537.36 (KHTML, like Gecko) draw.io/21.6.5 Chrome/114.0.5735.243 Electron/25.3.1 Safari/537.36" etag="Sqpd2ULALiNwIT6C6VAt" version="21.6.5" type="device">
  <diagram name="Page-1" id="UOU_QqovXyosc0nIfyP8">
    <mxGraphModel dx="4336" dy="606" grid="1" gridSize="10" guides="1" tooltips="1" connect="1" arrows="1" fold="1" page="1" pageScale="1" pageWidth="3300" pageHeight="4681" math="0" shadow="0">
      <root>
        <mxCell id="0" />
        <mxCell id="1" parent="0" />
        <mxCell id="yPeMuopRCffUpDQ1Bhgw-6" style="rounded=0;orthogonalLoop=1;jettySize=auto;html=1;exitX=0;exitY=1;exitDx=0;exitDy=0;entryX=1;entryY=0.5;entryDx=0;entryDy=0;" edge="1" parent="1" source="yPeMuopRCffUpDQ1Bhgw-1" target="yPeMuopRCffUpDQ1Bhgw-3">
          <mxGeometry relative="1" as="geometry" />
        </mxCell>
        <mxCell id="yPeMuopRCffUpDQ1Bhgw-1" value="MonoDB" style="ellipse;whiteSpace=wrap;html=1;" vertex="1" parent="1">
          <mxGeometry x="790" y="140" width="120" height="80" as="geometry" />
        </mxCell>
        <mxCell id="yPeMuopRCffUpDQ1Bhgw-2" value="MinIO" style="ellipse;whiteSpace=wrap;html=1;" vertex="1" parent="1">
          <mxGeometry x="790" y="310" width="120" height="80" as="geometry" />
        </mxCell>
        <mxCell id="yPeMuopRCffUpDQ1Bhgw-4" style="rounded=0;orthogonalLoop=1;jettySize=auto;html=1;exitX=1;exitY=0.25;exitDx=0;exitDy=0;entryX=0;entryY=0.5;entryDx=0;entryDy=0;" edge="1" parent="1" source="yPeMuopRCffUpDQ1Bhgw-3" target="yPeMuopRCffUpDQ1Bhgw-1">
          <mxGeometry relative="1" as="geometry" />
        </mxCell>
        <mxCell id="yPeMuopRCffUpDQ1Bhgw-5" value="1. requesting the products" style="edgeLabel;html=1;align=center;verticalAlign=middle;resizable=0;points=[];" vertex="1" connectable="0" parent="yPeMuopRCffUpDQ1Bhgw-4">
          <mxGeometry x="0.1356" y="-2" relative="1" as="geometry">
            <mxPoint x="-43" y="-10" as="offset" />
          </mxGeometry>
        </mxCell>
        <mxCell id="yPeMuopRCffUpDQ1Bhgw-8" style="rounded=0;orthogonalLoop=1;jettySize=auto;html=1;exitX=1;exitY=0.75;exitDx=0;exitDy=0;entryX=0.023;entryY=0.602;entryDx=0;entryDy=0;entryPerimeter=0;startArrow=classic;startFill=1;" edge="1" parent="1" source="yPeMuopRCffUpDQ1Bhgw-25" target="yPeMuopRCffUpDQ1Bhgw-2">
          <mxGeometry relative="1" as="geometry" />
        </mxCell>
        <mxCell id="yPeMuopRCffUpDQ1Bhgw-9" value="3. fetching the corresponding images using the &lt;br&gt;ref property of each product" style="edgeLabel;html=1;align=center;verticalAlign=middle;resizable=0;points=[];" vertex="1" connectable="0" parent="yPeMuopRCffUpDQ1Bhgw-8">
          <mxGeometry x="0.007" y="-2" relative="1" as="geometry">
            <mxPoint x="6" y="20" as="offset" />
          </mxGeometry>
        </mxCell>
        <mxCell id="yPeMuopRCffUpDQ1Bhgw-3" value="Fetching Products" style="rounded=1;whiteSpace=wrap;html=1;align=center;verticalAlign=top;fillColor=none;" vertex="1" parent="1">
          <mxGeometry x="390" y="260" width="120" height="130" as="geometry" />
        </mxCell>
        <mxCell id="yPeMuopRCffUpDQ1Bhgw-7" value="2. sending back the products" style="edgeLabel;html=1;align=center;verticalAlign=middle;resizable=0;points=[];" vertex="1" connectable="0" parent="1">
          <mxGeometry x="700.003176201406" y="219.99546880412873" as="geometry">
            <mxPoint x="18" y="39" as="offset" />
          </mxGeometry>
        </mxCell>
        <mxCell id="yPeMuopRCffUpDQ1Bhgw-10" value="" style="endArrow=classic;html=1;rounded=0;exitX=0;exitY=0.25;exitDx=0;exitDy=0;entryX=1;entryY=0.5;entryDx=0;entryDy=0;" edge="1" parent="1" source="yPeMuopRCffUpDQ1Bhgw-25" target="yPeMuopRCffUpDQ1Bhgw-11">
          <mxGeometry width="50" height="50" relative="1" as="geometry">
            <mxPoint x="230" y="360" as="sourcePoint" />
            <mxPoint x="190" y="290" as="targetPoint" />
          </mxGeometry>
        </mxCell>
        <mxCell id="yPeMuopRCffUpDQ1Bhgw-12" value="4. sending back the products with their images" style="edgeLabel;html=1;align=center;verticalAlign=middle;resizable=0;points=[];" vertex="1" connectable="0" parent="yPeMuopRCffUpDQ1Bhgw-10">
          <mxGeometry x="0.036" y="3" relative="1" as="geometry">
            <mxPoint x="4" y="27" as="offset" />
          </mxGeometry>
        </mxCell>
        <mxCell id="yPeMuopRCffUpDQ1Bhgw-14" style="rounded=0;orthogonalLoop=1;jettySize=auto;html=1;exitX=1;exitY=0.25;exitDx=0;exitDy=0;entryX=0;entryY=0;entryDx=0;entryDy=0;" edge="1" parent="1" source="yPeMuopRCffUpDQ1Bhgw-11" target="yPeMuopRCffUpDQ1Bhgw-3">
          <mxGeometry relative="1" as="geometry" />
        </mxCell>
        <mxCell id="yPeMuopRCffUpDQ1Bhgw-15" value="0. requesting the products" style="edgeLabel;html=1;align=center;verticalAlign=middle;resizable=0;points=[];" vertex="1" connectable="0" parent="yPeMuopRCffUpDQ1Bhgw-14">
          <mxGeometry x="0.1621" y="-1" relative="1" as="geometry">
            <mxPoint x="-20" y="-16" as="offset" />
          </mxGeometry>
        </mxCell>
        <mxCell id="yPeMuopRCffUpDQ1Bhgw-11" value="Front" style="rounded=0;whiteSpace=wrap;html=1;" vertex="1" parent="1">
          <mxGeometry x="-10" y="205" width="160" height="170" as="geometry" />
        </mxCell>
        <mxCell id="yPeMuopRCffUpDQ1Bhgw-21" style="edgeStyle=orthogonalEdgeStyle;rounded=0;orthogonalLoop=1;jettySize=auto;html=1;exitX=1;exitY=0.25;exitDx=0;exitDy=0;entryX=0;entryY=0.25;entryDx=0;entryDy=0;" edge="1" parent="1" source="yPeMuopRCffUpDQ1Bhgw-16" target="yPeMuopRCffUpDQ1Bhgw-20">
          <mxGeometry relative="1" as="geometry" />
        </mxCell>
        <mxCell id="yPeMuopRCffUpDQ1Bhgw-22" value="0. requesting cart" style="edgeLabel;html=1;align=center;verticalAlign=middle;resizable=0;points=[];" vertex="1" connectable="0" parent="yPeMuopRCffUpDQ1Bhgw-21">
          <mxGeometry x="-0.0783" relative="1" as="geometry">
            <mxPoint y="-12" as="offset" />
          </mxGeometry>
        </mxCell>
        <mxCell id="yPeMuopRCffUpDQ1Bhgw-16" value="Front" style="rounded=0;whiteSpace=wrap;html=1;verticalAlign=top;fillColor=none;" vertex="1" parent="1">
          <mxGeometry x="-10" y="530" width="160" height="170" as="geometry" />
        </mxCell>
        <mxCell id="yPeMuopRCffUpDQ1Bhgw-29" style="edgeStyle=orthogonalEdgeStyle;rounded=0;orthogonalLoop=1;jettySize=auto;html=1;exitX=0.5;exitY=1;exitDx=0;exitDy=0;entryX=1;entryY=0.75;entryDx=0;entryDy=0;" edge="1" parent="1" source="yPeMuopRCffUpDQ1Bhgw-18" target="yPeMuopRCffUpDQ1Bhgw-28">
          <mxGeometry relative="1" as="geometry" />
        </mxCell>
        <mxCell id="yPeMuopRCffUpDQ1Bhgw-30" value="2. sending back the Cart&amp;nbsp;" style="edgeLabel;html=1;align=center;verticalAlign=middle;resizable=0;points=[];" vertex="1" connectable="0" parent="yPeMuopRCffUpDQ1Bhgw-29">
          <mxGeometry x="0.3155" y="-1" relative="1" as="geometry">
            <mxPoint x="17" y="9" as="offset" />
          </mxGeometry>
        </mxCell>
        <mxCell id="yPeMuopRCffUpDQ1Bhgw-18" value="MonoDB" style="ellipse;whiteSpace=wrap;html=1;" vertex="1" parent="1">
          <mxGeometry x="740" y="530" width="120" height="80" as="geometry" />
        </mxCell>
        <mxCell id="yPeMuopRCffUpDQ1Bhgw-19" value="&lt;b&gt;&lt;font color=&quot;#0000cc&quot;&gt;Attach corresponding images to products&lt;/font&gt;&lt;/b&gt;" style="text;html=1;strokeColor=none;fillColor=none;align=center;verticalAlign=middle;whiteSpace=wrap;rounded=0;" vertex="1" parent="1">
          <mxGeometry x="420" y="325" width="60" height="50" as="geometry" />
        </mxCell>
        <mxCell id="yPeMuopRCffUpDQ1Bhgw-23" style="rounded=0;orthogonalLoop=1;jettySize=auto;html=1;exitX=1;exitY=0.25;exitDx=0;exitDy=0;entryX=0;entryY=0.5;entryDx=0;entryDy=0;" edge="1" parent="1" source="yPeMuopRCffUpDQ1Bhgw-20" target="yPeMuopRCffUpDQ1Bhgw-18">
          <mxGeometry relative="1" as="geometry" />
        </mxCell>
        <mxCell id="yPeMuopRCffUpDQ1Bhgw-24" value="1. requesting Cart" style="edgeLabel;html=1;align=center;verticalAlign=middle;resizable=0;points=[];" vertex="1" connectable="0" parent="yPeMuopRCffUpDQ1Bhgw-23">
          <mxGeometry x="0.0675" y="-4" relative="1" as="geometry">
            <mxPoint y="-14" as="offset" />
          </mxGeometry>
        </mxCell>
        <mxCell id="yPeMuopRCffUpDQ1Bhgw-20" value="Fetching Cart" style="rounded=1;whiteSpace=wrap;html=1;align=center;verticalAlign=top;fillColor=none;" vertex="1" parent="1">
          <mxGeometry x="390" y="540" width="120" height="130" as="geometry" />
        </mxCell>
        <mxCell id="yPeMuopRCffUpDQ1Bhgw-25" value="" style="rounded=0;whiteSpace=wrap;html=1;fillColor=none;" vertex="1" parent="1">
          <mxGeometry x="405" y="315" width="90" height="70" as="geometry" />
        </mxCell>
        <mxCell id="yPeMuopRCffUpDQ1Bhgw-31" style="rounded=0;orthogonalLoop=1;jettySize=auto;html=1;exitX=0;exitY=0.5;exitDx=0;exitDy=0;entryX=0.997;entryY=0.566;entryDx=0;entryDy=0;entryPerimeter=0;" edge="1" parent="1" source="yPeMuopRCffUpDQ1Bhgw-28" target="yPeMuopRCffUpDQ1Bhgw-16">
          <mxGeometry relative="1" as="geometry" />
        </mxCell>
        <mxCell id="yPeMuopRCffUpDQ1Bhgw-32" value="3. sending back populated response" style="edgeLabel;html=1;align=center;verticalAlign=middle;resizable=0;points=[];" vertex="1" connectable="0" parent="yPeMuopRCffUpDQ1Bhgw-31">
          <mxGeometry x="0.0382" y="2" relative="1" as="geometry">
            <mxPoint y="12" as="offset" />
          </mxGeometry>
        </mxCell>
        <mxCell id="yPeMuopRCffUpDQ1Bhgw-28" value="&lt;font color=&quot;#0000ff&quot;&gt;&lt;b&gt;Populate the response&lt;/b&gt;&lt;/font&gt;" style="rounded=0;whiteSpace=wrap;html=1;fillColor=none;" vertex="1" parent="1">
          <mxGeometry x="410" y="590" width="90" height="70" as="geometry" />
        </mxCell>
        <mxCell id="yPeMuopRCffUpDQ1Bhgw-33" value="&lt;font color=&quot;#0000ff&quot;&gt;&lt;b&gt;attach images to the items using the already fetched products images&lt;/b&gt;&lt;/font&gt;" style="rounded=0;whiteSpace=wrap;html=1;fillColor=none;" vertex="1" parent="1">
          <mxGeometry x="25" y="560" width="90" height="110" as="geometry" />
        </mxCell>
      </root>
    </mxGraphModel>
  </diagram>
</mxfile>
